<svg width="286" height="265" viewBox="0 0 286 265" fill="none" xmlns="http://www.w3.org/2000/svg">
<path d="M196.487 109.702C176.656 96.2736 151.669 93.8932 129.648 103.338C107.627 112.783 92.1286 132.526 88.1909 156.149L78.6968 213.072C77.1216 222.515 78.5993 232.012 82.9654 240.531C87.3329 249.051 94.1822 255.791 102.774 260.03C111.366 264.262 120.891 265.588 130.319 263.866C139.747 262.145 148.19 257.532 154.736 250.531L155.173 250.06C171.72 232.623 194.942 222.758 218.997 222.97C225.201 223.025 231.231 221.812 236.812 219.418C239.847 218.117 242.753 216.463 245.482 214.477C253.228 208.835 258.833 201.02 261.691 191.875C264.546 182.734 264.385 173.123 261.223 164.083C258.062 155.043 252.2 147.428 244.271 142.057L196.487 109.702ZM67.2406 165.064C74.3581 158.141 77.8887 148.505 77.1809 137.931C76.5086 127.869 72.0232 118.107 64.5487 110.443C57.0753 102.786 47.4267 98.0557 37.3784 97.1232C26.8239 96.1454 17.0949 99.4222 9.99345 106.346C-4.29927 120.259 -3.09054 144.756 12.6949 160.964C25.2808 173.854 43.3658 177.643 57.4209 171.614C61.07 170.055 64.3992 167.834 67.2406 165.064ZM107.81 106.258C129.203 97.0831 138.111 69.8059 127.666 45.4534C117.219 21.0946 91.3155 8.74315 69.9226 17.9183C48.5317 27.0926 39.628 54.3725 50.0751 78.7312C60.5196 103.084 86.419 115.433 107.81 106.258ZM179.468 88.3718L179.47 88.3709C183.151 88.0588 186.758 87.1563 190.152 85.6981C205.754 79.007 216.092 61.1406 214.415 41.2155C213.452 29.7458 208.68 19.2274 200.981 11.5999C192.923 3.61357 182.661 -0.290987 172.085 0.605313C161.507 1.5022 152.044 7.07915 145.435 16.3071C139.121 25.1218 136.178 36.2942 137.145 47.762C139.183 71.9565 158.169 90.1736 179.468 88.3718ZM258.962 48.1754L258.953 48.1719C239.53 43.6104 219.49 57.7928 214.28 79.7941C209.085 101.798 220.648 123.425 240.052 128.004C247.13 129.677 254.294 128.854 260.79 126.068C272.114 121.212 281.417 110.385 284.738 96.3888C289.931 74.385 278.37 52.7572 258.961 48.1749L258.962 48.1754Z" fill="#E47537"/>
</svg>
